<?xml version="1.0" standalone="no"?>
<!DOCTYPE svg PUBLIC "-//W3C//DTD SVG 20010904//EN"
 "http://www.w3.org/TR/2001/REC-SVG-20010904/DTD/svg10.dtd">
<svg version="1.0" xmlns="http://www.w3.org/2000/svg"
 width="260.000000pt" height="260.000000pt" viewBox="0 0 260.000000 260.000000"
 preserveAspectRatio="xMidYMid meet">
<metadata>
Created by potrace 1.11, written by Peter Selinger 2001-2013
</metadata>
<g transform="translate(0.000000,260.000000) scale(0.100000,-0.100000)"
fill="#000000" stroke="none">
<path d="M210 2595 c0 -30 324 -493 374 -534 11 -10 24 -1 67 44 65 68 176
144 258 176 72 28 73 14 -15 192 l-64 127 -310 0 c-171 0 -310 -2 -310 -5z"/>
<path d="M1107 2503 c7 -116 13 -134 13 -37 0 79 15 115 50 125 19 5 14 7 -22
8 l-46 1 5 -97z"/>
<path d="M1438 2590 c29 -12 42 -48 43 -123 1 -82 6 -62 12 46 l5 87 -42 -1
c-35 0 -38 -2 -18 -9z"/>
<path d="M1743 2547 c-51 -94 -116 -237 -111 -242 3 -3 33 -11 67 -17 52 -10
69 -9 115 5 29 9 63 17 76 17 42 0 108 -40 158 -95 l49 -54 54 72 c65 87 185
267 217 325 l23 42 -310 0 -309 0 -29 -53z"/>
<path d="M0 2057 l0 -205 213 -105 c116 -58 221 -108 233 -111 20 -6 21 -2 27
76 3 46 15 110 26 142 12 33 21 62 21 66 0 13 -340 237 -512 337 -5 2 -8 -88
-8 -200z"/>
<path d="M2510 2209 c-47 -28 -140 -87 -206 -130 l-122 -80 14 -52 c18 -68 18
-124 -1 -178 -48 -135 -185 -157 -308 -50 -42 37 -32 41 -151 -53 -75 -59 -86
-71 -70 -78 10 -4 61 -23 113 -42 l95 -35 170 76 c94 41 258 118 364 171 l192
96 0 203 c0 112 -1 203 -2 203 -2 -1 -41 -23 -88 -51z"/>
<path d="M1329 1959 c-20 -12 -43 -34 -52 -49 -21 -35 -22 -102 -2 -140 15
-29 79 -80 101 -80 6 0 20 52 32 123 30 166 29 167 -10 167 -18 0 -49 -10 -69
-21z"/>
<path d="M1494 1969 c-9 -15 -94 -272 -94 -285 0 -7 47 -28 105 -47 l105 -35
90 96 c49 52 90 99 90 103 0 11 -105 95 -157 125 -56 33 -130 56 -139 43z"/>
<path d="M0 1300 l0 -253 103 6 c165 10 486 58 634 94 19 4 15 10 -38 54 -78
65 -134 137 -176 226 -28 57 -40 73 -61 77 -55 11 -260 35 -359 42 l-103 7 0
-253z"/>
<path d="M2355 1534 c-123 -14 -356 -51 -381 -61 -9 -3 0 -15 28 -35 110 -78
185 -178 219 -290 19 -62 23 -68 52 -73 63 -10 227 -25 277 -25 l50 0 0 250 0
250 -62 -1 c-35 -1 -117 -7 -183 -15z"/>
<path d="M720 1083 c-47 -19 -87 -37 -89 -39 -2 -2 10 -19 27 -39 17 -19 47
-60 67 -90 19 -30 37 -55 40 -55 5 0 179 134 209 161 6 5 -109 73 -164 96 -3
1 -43 -14 -90 -34z"/>
<path d="M910 912 c-55 -58 -100 -111 -100 -118 0 -40 180 -157 262 -170 l33
-6 52 159 c29 87 49 161 45 165 -4 4 -49 23 -100 42 l-92 34 -100 -106z"/>
<path d="M203 847 l-203 -102 0 -203 0 -203 48 28 c81 46 203 123 311 195 95
64 103 72 97 96 -3 15 -12 59 -20 97 -9 39 -16 98 -16 133 0 34 -3 62 -7 61
-5 0 -99 -46 -210 -102z"/>
<path d="M1216 922 c-3 -9 -14 -73 -26 -142 -11 -69 -23 -136 -26 -149 l-5
-24 83 5 c79 4 161 32 179 60 3 5 -1 49 -9 99 -17 101 -15 99 -141 149 -46 18
-50 18 -55 2z"/>
<path d="M2242 847 c-7 -40 -29 -107 -49 -150 -20 -42 -34 -79 -32 -81 29 -24
359 -234 417 -265 l22 -12 0 203 0 203 -173 87 -173 86 -12 -71z"/>
<path d="M1436 793 c16 -54 24 -65 24 -34 0 20 -26 81 -34 81 -2 0 2 -21 10
-47z"/>
<path d="M2024 479 c-49 -55 -220 -152 -326 -185 -32 -10 -58 -22 -58 -27 0
-18 123 -259 134 -263 6 -2 148 -3 314 -2 l303 3 -70 113 c-61 98 -265 382
-274 382 -2 0 -12 -10 -23 -21z"/>
<path d="M503 441 c-85 -108 -293 -417 -293 -436 0 -3 139 -5 310 -5 l310 0
65 130 c36 71 65 134 65 138 0 5 -26 15 -57 22 -172 37 -297 91 -340 145 -15
19 -30 35 -33 34 -3 0 -15 -13 -27 -28z"/>
<path d="M1111 140 c0 -36 -4 -82 -7 -103 -6 -35 -5 -37 21 -37 24 0 26 2 14
16 -8 10 -16 54 -20 103 -6 84 -6 85 -8 21z"/>
<path d="M1481 125 c-1 -40 -7 -82 -15 -97 -14 -27 -14 -28 8 -28 23 0 24 1
19 88 -6 111 -11 127 -12 37z"/>
</g>
</svg>
